<?xml version="1.0" standalone="no"?>
<!DOCTYPE svg PUBLIC "-//W3C//DTD SVG 20010904//EN"
 "http://www.w3.org/TR/2001/REC-SVG-20010904/DTD/svg10.dtd">
<svg version="1.0" xmlns="http://www.w3.org/2000/svg"
 width="495.000000pt" height="495.000000pt" viewBox="0 0 495.000000 495.000000"
 preserveAspectRatio="xMidYMid meet">
<metadata>
Created by potrace 1.11, written by Peter Selinger 2001-2013
</metadata>
<g transform="translate(0.000000,495.000000) scale(0.100000,-0.100000)"
fill="#000000" stroke="none">
<path d="M0 2475 l0 -2475 2475 0 2475 0 0 2475 0 2475 -2475 0 -2475 0 0
-2475z m2740 2135 l0 -300 173 0 c220 0 363 -14 473 -46 346 -100 544 -368
594 -804 16 -135 7 -469 -15 -565 -58 -260 -174 -441 -354 -555 -39 -25 -71
-48 -71 -51 0 -6 64 -198 374 -1112 l195 -577 -281 2 -282 3 -246 785 -246
785 -157 3 -157 3 -2 -1068 -3 -1068 -245 -3 c-135 -1 -255 0 -267 3 l-23 5 0
1065 0 1065 -158 0 -158 0 -246 -787 -246 -788 -281 -3 c-154 -1 -281 1 -281
5 0 5 128 384 284 843 255 751 282 836 267 848 -9 7 -53 40 -99 73 -171 126
-264 289 -318 554 -28 139 -26 481 4 631 28 141 53 219 103 319 78 155 184
262 335 335 151 75 308 100 615 100 l179 0 0 300 0 300 270 0 270 0 0 -300z"/>
<path d="M1792 3795 c-242 -44 -316 -176 -316 -565 0 -255 29 -383 106 -466
83 -90 176 -113 451 -114 l167 0 0 580 0 580 -167 -1 c-93 0 -201 -7 -241 -14z"/>
<path d="M2740 3229 l0 -581 213 5 c169 4 222 8 262 22 190 68 245 194 245
559 -1 202 -16 304 -60 393 -68 137 -190 182 -497 183 l-163 0 0 -581z"/>
</g>
</svg>
